<svg width="349" height="349" viewBox="0 0 349 349" fill="none" xmlns="http://www.w3.org/2000/svg">
<rect width="349" height="349" fill="#111111"/>
<path d="M103.783 157.092C103.855 156.911 103.979 156.755 104.138 156.644L116.34 148.102C116.508 147.985 116.709 147.921 116.914 147.921H144.631C145.421 147.921 145.899 148.794 145.474 149.459L141.491 155.702C141.308 155.99 140.99 156.164 140.648 156.164H117.412C117.005 156.164 116.639 156.411 116.486 156.788L111.356 169.414C111.089 170.072 111.573 170.79 112.283 170.79H131.372C132.125 170.79 132.608 171.591 132.256 172.257L128.28 179.786C128.107 180.114 127.767 180.319 127.396 180.319H107.666C107.263 180.319 106.899 180.562 106.743 180.934L102.812 190.369C102.538 191.028 103.022 191.754 103.735 191.754H136.879C137.082 191.754 137.281 191.692 137.448 191.576L160.154 175.868C160.642 175.531 160.73 174.845 160.344 174.395L146.313 158.025C146.022 157.685 145.992 157.193 146.24 156.82L151.44 149.02C151.808 148.468 152.6 148.421 153.032 148.924L170.113 168.852C170.441 169.234 171.001 169.314 171.421 169.038L203.381 148.083C203.542 147.977 203.73 147.921 203.922 147.919L233.25 147.695C233.959 147.69 234.449 148.403 234.188 149.063L217.853 190.386C217.593 191.042 218.077 191.754 218.783 191.754H241.104C241.507 191.754 241.871 191.511 242.027 191.139L259.922 148.298C260.078 147.926 260.442 147.684 260.845 147.684H270.069C270.775 147.684 271.259 148.397 270.998 149.054L250.548 200.416C250.396 200.796 250.028 201.046 249.619 201.046H213.487H202.393C201.678 201.046 201.194 200.318 201.471 199.658L219.159 157.569C219.436 156.91 218.952 156.182 218.237 156.182H214.554H210.091C209.889 156.182 209.693 156.243 209.526 156.357L179.161 177.133C178.662 177.474 178.578 178.178 178.983 178.627L197.677 199.377C198.257 200.02 197.8 201.046 196.934 201.046L183.745 201.046C183.461 201.046 183.191 200.926 183.002 200.715L168.628 184.768C168.298 184.401 167.749 184.33 167.337 184.601L142.505 200.882C142.342 200.989 142.151 201.046 141.956 201.046L133.691 201.046L87.7338 201.046C87.0268 201.046 86.5431 200.332 86.8049 199.676L103.783 157.092Z" fill="white"/>
<path d="M274.257 148.313C274.409 147.933 274.777 147.684 275.186 147.684H315.646C316.319 147.684 316.8 148.335 316.602 148.978L313.417 159.342C313.1 160.372 311.603 160.242 311.469 159.173L311.199 157.039C311.136 156.539 310.711 156.164 310.207 156.164H283.101C282.349 156.164 281.866 156.964 282.217 157.63L300.832 192.93C300.969 193.189 300.985 193.495 300.877 193.767L298.228 200.416C298.077 200.796 297.709 201.046 297.299 201.046H254.494C253.786 201.046 253.302 200.33 253.566 199.673L257.51 189.843C257.92 188.821 259.438 189.115 259.438 190.215V191.373C259.438 191.925 259.886 192.373 260.438 192.373H287.347C288.095 192.373 288.579 191.582 288.237 190.916L271.01 157.378C270.878 157.12 270.864 156.819 270.971 156.55L274.257 148.313Z" fill="white"/>
<path d="M48.7209 149.531C48.9636 148.809 49.8928 148.612 50.407 149.175L77.2623 178.556C77.7449 179.084 78.6098 178.949 78.9088 178.299L92.6218 148.504C92.785 148.149 93.1398 147.922 93.5302 147.922L110.684 147.922C111.68 147.922 112.064 149.218 111.229 149.76L101.614 156.01C101.444 156.121 101.311 156.28 101.234 156.468L82.8914 201.103C82.6135 201.779 81.7275 201.938 81.2316 201.401L55.2622 173.262C54.752 172.709 53.837 172.896 53.5851 173.605L44.2118 199.982C44.0701 200.381 43.6928 200.647 43.2696 200.647L32.9391 200.647C32.2555 200.647 31.7735 199.977 31.9912 199.329L48.7209 149.531Z" fill="white"/>
</svg>
